<svg width="26" height="26" viewBox="0 0 26 26" fill="none" xmlns="http://www.w3.org/2000/svg">
        <rect width="26" height="26" fill="white"></rect>
        <path d="M13.4172 19.3517C13.0539 19.3517 12.7384 19.0831 12.6879 18.7137C12.6332 18.3103 12.9166 17.9392 13.3199 17.8853C17.1568 17.3681 20.0514 14.0562 20.061 10.1793C20.0523 6.27716 17.1351 2.96267 13.2695 2.46719C12.8661 2.41591 12.581 2.04647 12.6323 1.64313C12.6836 1.2398 13.0522 0.954678 13.4564 1.00596C18.0452 1.59445 21.5101 5.52004 21.5335 10.1488C21.5335 10.1532 21.5335 10.1584 21.5335 10.1628V10.1975C21.5335 10.2019 21.5335 10.2071 21.5335 10.2114C21.5092 14.809 18.0704 18.7311 13.5163 19.3456C13.4833 19.3491 13.4503 19.3517 13.4172 19.3517Z" fill="#1D1D1B"></path>
        <path d="M11.1719 19.393C11.1406 19.393 11.1093 19.3912 11.0772 19.3869C6.4727 18.7967 3 14.845 3 10.1962C3 5.57694 6.44662 1.62876 11.0172 1.01245C11.4214 0.958556 11.7917 1.24107 11.8456 1.6444C11.9004 2.04774 11.617 2.41891 11.2136 2.47281C7.37064 2.99089 4.47253 6.31146 4.47253 10.1962C4.47253 14.1061 7.39237 17.4293 11.2641 17.9257C11.6674 17.9778 11.9525 18.3464 11.9012 18.7497C11.8543 19.1218 11.537 19.393 11.1719 19.393Z" fill="#1D1D1B"></path>
        <path d="M19.9983 22.9997C19.7628 22.9997 19.5307 22.8867 19.3881 22.6772L16.1084 17.8537C15.8798 17.5173 15.9667 17.0592 16.3031 16.8297C16.6395 16.6011 17.0976 16.688 17.3271 17.0244L20.6068 21.848C20.8354 22.1844 20.7485 22.6425 20.4121 22.8719C20.2852 22.9589 20.1409 22.9997 19.9983 22.9997Z" fill="#1D1D1B"></path>
        <path d="M17.5758 9.30366C17.2446 9.30366 16.943 9.07852 16.8613 8.74212C16.0459 5.4172 13.0496 5.48935 12.9209 5.49282C12.5193 5.50586 12.1725 5.19293 12.156 4.78785C12.1386 4.38278 12.4506 4.04029 12.8557 4.02117C12.9009 4.01943 13.9675 3.9751 15.1601 4.49144C16.271 4.97214 17.7158 6.03872 18.2929 8.39094C18.3903 8.78645 18.1478 9.18544 17.7531 9.28193C17.6932 9.29671 17.634 9.30366 17.5758 9.30366Z" fill="#E4133A"></path>
        </svg>